<svg xmlns="http://www.w3.org/2000/svg" width="23.08" height="18" viewBox="0 0 23.08 18"><defs><style>.a{fill:#5b5f62;}</style></defs><path class="a" d="M.136,14.279a2.981,2.981,0,0,0,5.911,0Zm16.1,6a.462.462,0,0,1-.461.463H7.168a.461.461,0,1,1,0-.921h8.611A.46.46,0,0,1,16.24,20.279Zm-9.484.7H16.19v1.333H6.757Zm10.277-6.7a2.979,2.979,0,0,0,5.909,0Zm5.747-.927-2.42-3.334h1.294a.574.574,0,0,0,0-1.148H14.8a3.394,3.394,0,0,0-2.6-2.184v-1.8a.573.573,0,0,0-.575-.575l-.054.006-.054-.006a.572.572,0,0,0-.574.575v1.8a3.392,3.392,0,0,0-2.6,2.184H1.488a.574.574,0,0,0,0,1.148H2.723L.3,13.35H0v.616H6.185V13.35h-.3l-2.42-3.333H9.078a2.433,2.433,0,0,1,.034-.38.543.543,0,0,0,.033-.177,2.454,2.454,0,0,1,1.8-1.816v6.323h-.024A6.982,6.982,0,0,1,8.06,19.585h7.023a6.99,6.99,0,0,1-2.862-5.618H12.2V7.645A2.453,2.453,0,0,1,14,9.46a.583.583,0,0,0,.035.177,2.559,2.559,0,0,1,.03.38H19.62L17.2,13.351h-.3v.616H23.08v-.616Zm-19.934,0H.914L2.846,10.69v2.661Zm.494,0V10.69l1.932,2.661H3.34Zm16.4,0H17.809l1.933-2.661Zm.492,0V10.69l1.934,2.661ZM3.666,8.067a.574.574,0,1,1-.572-.575.574.574,0,0,1,.572.575Zm16.9-.03a.574.574,0,1,1-.28-.516A.571.571,0,0,1,20.562,8.036Z" transform="translate(0 -4.311)"/></svg>